<?xml version="1.0" encoding="UTF-8"?>
<!DOCTYPE svg PUBLIC "-//W3C//DTD SVG 1.1//EN" "http://www.w3.org/Graphics/SVG/1.1/DTD/svg11.dtd">
<svg xmlns="http://www.w3.org/2000/svg" version="1.1" width="500px" height="500px" style="shape-rendering:geometricPrecision; text-rendering:geometricPrecision; image-rendering:optimizeQuality; fill-rule:evenodd; clip-rule:evenodd" xmlns:xlink="http://www.w3.org/1999/xlink">
<g><path style="opacity:1" fill="#000000" d="M -0.5,-0.5 C 166.167,-0.5 332.833,-0.5 499.5,-0.5C 499.5,166.167 499.5,332.833 499.5,499.5C 332.833,499.5 166.167,499.5 -0.5,499.5C -0.5,332.833 -0.5,166.167 -0.5,-0.5 Z"/></g>
<g><path style="opacity:1" fill="#f8f8f8" d="M 205.5,144.5 C 241.804,143.223 266.97,159.223 281,192.5C 289.937,226.779 280.103,254.279 251.5,275C 222.449,290.766 194.783,288.766 168.5,269C 145.12,246.314 138.62,219.48 149,188.5C 160.119,163.876 178.952,149.21 205.5,144.5 Z"/></g>
<g><path style="opacity:1" fill="#020202" d="M 205.5,156.5 C 239.764,155.29 261.931,170.957 272,203.5C 275.693,237.646 261.526,260.479 229.5,272C 197.485,277.909 174.318,266.409 160,237.5C 149.584,205.744 158.417,180.911 186.5,163C 192.708,160.098 199.041,157.932 205.5,156.5 Z"/></g>
<g><path style="opacity:1" fill="#f3f3f3" d="M 171.5,189.5 C 174.864,188.873 176.864,190.206 177.5,193.5C 172.774,205.042 171.274,217.042 173,229.5C 178.887,244.38 189.721,253.547 205.5,257C 213.6,258.232 221.433,257.398 229,254.5C 232.345,255.719 233.179,257.886 231.5,261C 208.731,268.527 189.231,263.36 173,245.5C 165.881,233.451 163.547,220.451 166,206.5C 167.141,200.577 168.975,194.91 171.5,189.5 Z"/></g>
<g><path style="opacity:1" fill="#fafafa" d="M 280.5,261.5 C 287.484,261.317 290.317,264.65 289,271.5C 282.167,278.333 275.333,285.167 268.5,292C 261.22,293.719 258.053,290.885 259,283.5C 266.369,276.298 273.536,268.965 280.5,261.5 Z"/></g>
<g><path style="opacity:1" fill="#fbfbfb" d="M 291.5,282.5 C 294.607,282.351 297.607,282.851 300.5,284C 318.029,301.195 335.196,318.695 352,336.5C 355.557,350.276 350.39,355.443 336.5,352C 319.304,335.138 302.471,317.972 286,300.5C 282.709,292.818 284.542,286.818 291.5,282.5 Z"/></g>
</svg>
